<svg width="34" height="35" viewBox="0 0 34 35" fill="none" xmlns="http://www.w3.org/2000/svg">
<path d="M34 17.4699C34 14.9398 32.5345 12.7711 30.4241 11.747C30.6586 11.0843 30.7759 10.3012 30.7759 9.57831C30.7759 7.89157 30.131 6.3253 28.9586 5.12048C27.7862 3.91566 26.2621 3.25301 24.6207 3.25301C23.8586 3.25301 23.1552 3.37349 22.5103 3.61446C21.5724 1.50602 19.4621 0 17 0C14.5379 0 12.4276 1.50602 11.431 3.6747C10.7862 3.43373 10.0241 3.31325 9.32069 3.31325C7.67931 3.31325 6.15517 3.9759 4.98276 5.18072C3.81034 6.38554 3.16552 7.95181 3.16552 9.63855C3.16552 10.4217 3.28276 11.1446 3.51724 11.8072C1.46552 12.7711 0 14.9398 0 17.4699C0 20 1.46552 22.1687 3.57586 23.1928C3.34138 23.8554 3.22414 24.6386 3.22414 25.3614C3.22414 27.0482 3.86897 28.6145 5.04138 29.8193C6.21379 31.0241 7.73793 31.6867 9.37931 31.6867C10.1414 31.6867 10.8448 31.5663 11.4897 31.3253C12.4862 33.494 14.5966 35 17.0586 35C19.5207 35 21.631 33.494 22.6276 31.3253C23.2724 31.5663 24.0345 31.6867 24.7379 31.6867C26.3793 31.6867 27.9034 31.0241 29.0759 29.8193C30.2483 28.6145 30.8931 27.0482 30.8931 25.3614C30.8931 24.5783 30.7759 23.8554 30.5414 23.1928C32.5345 22.1687 34 20 34 17.4699ZM28.1379 6.0241C29.5448 7.46988 29.8966 9.57831 29.2517 11.3253C28.7828 11.2048 28.3138 11.1446 27.8448 11.1446H23.0966V6.26506C23.0966 5.78313 23.0379 5.30121 22.9207 4.81928C24.7379 4.21687 26.731 4.57831 28.1379 6.0241ZM22.8034 12.4096H27.9034C28.1966 12.4096 28.431 12.4096 28.7241 12.4699C28.5483 12.7108 28.3724 12.8916 28.1966 13.1325L24.5621 16.8675H18.4655L21.3379 13.9157L22.8034 12.4096ZM21.9241 6.3253V11.5663L20.4586 13.0723L17.5862 15.9639V9.6988L21.1621 6.0241C21.3379 5.84337 21.5724 5.66265 21.8069 5.48193C21.8655 5.72289 21.9241 6.0241 21.9241 6.3253ZM17 1.26506C18.9931 1.26506 20.6931 2.46988 21.4552 4.21687C21.0448 4.45783 20.6931 4.75904 20.3414 5.12048L17 8.55422L13.6586 5.12048C13.3069 4.75904 12.9552 4.45783 12.5448 4.21687C13.3069 2.46988 15.0069 1.26506 17 1.26506ZM12.0759 6.3253C12.0759 6.0241 12.0759 5.78313 12.1345 5.48193C12.369 5.66265 12.5448 5.84337 12.7793 6.0241L16.3552 9.6988V15.9639L13.4828 13.012L12.0172 11.506V6.3253H12.0759ZM12.6621 13.9157L15.5345 16.8675H9.43793L5.86207 13.1325C5.68621 12.9518 5.51034 12.7108 5.33448 12.4699C5.62759 12.4096 5.86207 12.4096 6.15517 12.4096H11.2552L12.6621 13.9157ZM5.86207 6.0241C7.26897 4.57831 9.32069 4.21687 11.0207 4.87952C10.9034 5.36145 10.8448 5.84337 10.8448 6.3253V11.2048H6.09655C5.62759 11.2048 5.15862 11.2651 4.68966 11.3855C4.10345 9.51807 4.45517 7.46988 5.86207 6.0241ZM1.23103 17.4699C1.23103 15.4217 2.40345 13.6747 4.10345 12.8916C4.33793 13.3133 4.63103 13.6747 4.98276 14.0361L8.32414 17.4699L4.98276 20.9036C4.63103 21.2651 4.33793 21.6265 4.10345 22.0482C2.40345 21.2651 1.23103 19.5181 1.23103 17.4699ZM5.86207 28.9157C4.45517 27.4699 4.10345 25.3614 4.74828 23.6145C5.21724 23.7349 5.68621 23.7952 6.15517 23.7952H10.9034V28.6747C10.9034 29.1566 10.9621 29.6386 11.0793 30.1205C9.26207 30.7229 7.26897 30.3614 5.86207 28.9157ZM11.1966 22.5301H6.09655C5.80345 22.5301 5.56897 22.5301 5.27586 22.4699C5.45172 22.2289 5.62759 22.0482 5.80345 21.8072L9.37931 18.1325H15.4759L11.1966 22.5301ZM12.0759 28.6145V23.3735L16.3552 18.9759V25.241L12.7793 28.9157C12.6034 29.0964 12.369 29.2771 12.1345 29.4578C12.1345 29.2169 12.0759 28.9157 12.0759 28.6145ZM17 33.6747C15.0069 33.6747 13.3069 32.4699 12.5448 30.7229C12.9552 30.4819 13.3069 30.1807 13.6586 29.8193L17 26.3855L20.3414 29.8193C20.6931 30.1807 21.0448 30.4819 21.4552 30.7229C20.6931 32.4699 18.9931 33.6747 17 33.6747ZM21.9241 28.6145C21.9241 28.9157 21.9241 29.1566 21.8655 29.4578C21.631 29.2771 21.4552 29.0964 21.2207 28.9157L17.5862 25.241V18.9759L21.8655 23.3735V28.6145H21.9241ZM18.4655 18.0723H24.5621L28.1379 21.747C28.3138 21.9277 28.4897 22.1687 28.6655 22.4096C28.3724 22.4699 28.1379 22.4699 27.8448 22.4699H22.7448L18.4655 18.0723ZM28.1379 28.9157C26.731 30.3614 24.6793 30.7229 22.9793 30.0602C23.0966 29.5783 23.1552 29.0964 23.1552 28.6145V23.7349H27.9034C28.3724 23.7349 28.8414 23.6747 29.3103 23.5542C29.8966 25.4217 29.5448 27.4699 28.1379 28.9157ZM29.8966 22.0482C29.6621 21.6265 29.369 21.2651 29.0172 20.9036L25.6759 17.4699L29.0172 14.0361C29.369 13.6747 29.6621 13.3133 29.8966 12.8916C31.5966 13.6747 32.769 15.4217 32.769 17.4699C32.769 19.5181 31.5966 21.2651 29.8966 22.0482Z" fill="url(#paint0_linear)"/>
<defs>
<linearGradient id="paint0_linear" x1="10.3005" y1="4.36988" x2="24.6201" y2="30.8839" gradientUnits="userSpaceOnUse">
<stop stop-color="#92A087"/>
<stop offset="1" stop-color="#979E90"/>
</linearGradient>
</defs>
</svg>
