<svg width="159" height="33" viewBox="0 0 159 33" fill="none" xmlns="http://www.w3.org/2000/svg">
<path d="M33 16.525C33 14.1286 31.6042 12.0817 29.5604 11.1331C29.8097 10.4841 29.9094 9.78517 29.9094 9.08623C29.9094 7.48865 29.3112 5.99092 28.1647 4.89259C27.0181 3.74433 25.5227 3.14523 23.9773 3.14523C23.2795 3.14523 22.5816 3.29501 21.9335 3.49471C20.9366 1.39788 18.8927 0 16.5 0C14.1073 0 12.0634 1.39788 11.1163 3.44478C10.4683 3.19516 9.77039 3.09531 9.07251 3.09531C7.47734 3.09531 5.98187 3.6944 4.8852 4.84266C3.73867 5.99092 3.14048 7.48865 3.14048 9.03631C3.14048 9.73525 3.29003 10.4342 3.48943 11.0832C1.39577 12.0817 0 14.1286 0 16.525C0 18.9213 1.39577 20.9682 3.43958 21.9168C3.19033 22.5658 3.09063 23.2648 3.09063 23.9637C3.09063 25.5613 3.68882 27.059 4.83535 28.1573C5.98187 29.3056 7.47734 29.9047 9.02266 29.9047C9.72054 29.9047 10.4184 29.7549 11.0665 29.5552C12.0136 31.6021 14.0574 33 16.4502 33C18.8429 33 20.8867 31.6021 21.8338 29.5552C22.4819 29.8048 23.1798 29.9047 23.8776 29.9047C25.4728 29.9047 26.9683 29.3056 28.065 28.1573C29.2115 27.0091 29.8097 25.5113 29.8097 23.9637C29.8097 23.2648 29.6601 22.5658 29.4607 21.9168C31.5544 20.9682 33 18.9213 33 16.525ZM27.3172 5.69138C28.6631 7.03933 29.0121 9.03631 28.4139 10.7337C27.9653 10.6339 27.5166 10.584 27.0181 10.584H22.432V5.99092C22.432 5.5416 22.3822 5.04236 22.2825 4.59304C23.9773 3.94402 25.9713 4.34342 27.3172 5.69138ZM22.0831 21.2678L17.9456 17.1241H23.8278L27.3172 20.6188C27.5166 20.8185 27.6662 21.0182 27.8157 21.2179C27.5665 21.2678 27.3172 21.2678 27.0181 21.2678H22.0831ZM12.4124 27.3585C12.213 27.5582 12.0136 27.708 11.8142 27.8578C11.7644 27.6082 11.7644 27.3585 11.7644 27.059V22.1165L15.9517 17.9228V23.8139L12.4124 27.3585ZM20.5876 5.69138C20.787 5.49168 20.9864 5.34191 21.1858 5.19213C21.2357 5.44175 21.2356 5.69138 21.2356 5.99092V10.9334L17.0483 15.1271V9.18608L20.5876 5.69138ZM15.9018 15.0772L11.7145 10.8835V5.941C11.7145 5.69138 11.7644 5.39183 11.7644 5.14221C11.9637 5.29198 12.1631 5.44176 12.3625 5.64145L15.852 9.13616V15.0772H15.9018ZM10.8671 11.7322L15.0544 15.9259H9.17221L5.68278 12.4312C5.48338 12.2315 5.33384 12.0318 5.18429 11.8321C5.43353 11.7821 5.68278 11.7821 5.98187 11.7821H10.8671V11.7322ZM9.17221 17.1241H15.0544L10.8671 21.3177H5.93202C5.68278 21.3177 5.38369 21.2678 5.13444 21.2678C5.28399 21.0681 5.43354 20.8684 5.63293 20.6687L9.17221 17.1241ZM17.0982 17.9728L21.2855 22.1664V27.1089C21.2855 27.3585 21.2356 27.6581 21.2356 27.9077C21.0363 27.7579 20.8369 27.6082 20.6375 27.4085L17.148 23.9138V17.9728H17.0982ZM23.8278 15.9259H17.9456L22.1329 11.7322H27.068C27.3172 11.7322 27.6163 11.7821 27.8656 11.7821C27.716 11.9818 27.5665 12.1815 27.3671 12.3812L23.8278 15.9259ZM16.5 1.19818C18.4441 1.19818 20.0891 2.34644 20.8369 3.99395C20.4381 4.24357 20.0891 4.49319 19.7402 4.84266L16.5 8.08775L13.2598 4.84266C12.9109 4.49319 12.5619 4.24357 12.1631 3.99395C12.9109 2.34644 14.5559 1.19818 16.5 1.19818ZM5.68278 5.69138C7.0287 4.34342 9.02266 3.99395 10.7175 4.59304C10.6178 5.04236 10.568 5.49168 10.568 5.99092V10.584H5.98187C5.53323 10.584 5.03474 10.6339 4.5861 10.7337C3.93807 9.03631 4.33686 7.03933 5.68278 5.69138ZM1.19637 16.525C1.19637 14.5779 2.3429 12.9304 3.98792 12.1815C4.23716 12.5809 4.4864 12.9304 4.83535 13.2799L8.07553 16.525L4.83535 19.77C4.4864 20.0696 4.23716 20.469 3.98792 20.8684C2.3429 20.0696 1.19637 18.4221 1.19637 16.525ZM5.68278 27.3585C4.33686 26.0106 3.98792 24.0136 4.5861 22.3162C5.03474 22.416 5.48338 22.466 5.98187 22.466H10.568V27.059C10.568 27.5083 10.6178 28.0076 10.7175 28.4569C9.02266 29.056 7.0287 28.7065 5.68278 27.3585ZM16.5 31.8517C14.5559 31.8517 12.9109 30.7035 12.1631 29.056C12.5619 28.8064 12.9109 28.5567 13.2598 28.2073L16.5 24.9622L19.7402 28.2073C20.0891 28.5567 20.4381 28.8064 20.8369 29.056C20.0393 30.7035 18.3943 31.8517 16.5 31.8517ZM27.3172 27.3585C25.9713 28.7065 23.9773 29.056 22.2825 28.4569C22.3822 28.0076 22.432 27.5582 22.432 27.059V22.466H27.0181C27.4668 22.466 27.9653 22.416 28.4139 22.3162C29.0121 24.0136 28.6631 26.0106 27.3172 27.3585ZM29.0121 20.8684C28.7628 20.469 28.5136 20.1195 28.1647 19.77L24.9245 16.525L28.1647 13.2799C28.5136 12.9304 28.7628 12.5809 29.0121 12.1815C30.6571 12.9304 31.8036 14.5779 31.8036 16.525C31.8036 18.472 30.6571 20.0696 29.0121 20.8684Z" fill="#243619"/>
<path d="M43.411 6.1H46.165V15.756H52.132V18H43.411V6.1Z" fill="#243619"/>
<path d="M63.2248 15.79V18H54.0108V6.1H63.0038V8.31H56.7478V10.894H62.2728V13.036H56.7478V15.79H63.2248Z" fill="#243619"/>
<path d="M71.4858 18.204C70.2505 18.204 69.1342 17.9377 68.1368 17.405C67.1508 16.8723 66.3745 16.1413 65.8078 15.212C65.2525 14.2713 64.9748 13.2173 64.9748 12.05C64.9748 10.8827 65.2525 9.83433 65.8078 8.905C66.3745 7.96433 67.1508 7.22767 68.1368 6.695C69.1342 6.16233 70.2505 5.896 71.4858 5.896C72.7212 5.896 73.8318 6.16233 74.8178 6.695C75.8038 7.22767 76.5802 7.96433 77.1468 8.905C77.7135 9.83433 77.9968 10.8827 77.9968 12.05C77.9968 13.2173 77.7135 14.2713 77.1468 15.212C76.5802 16.1413 75.8038 16.8723 74.8178 17.405C73.8318 17.9377 72.7212 18.204 71.4858 18.204ZM71.4858 15.858C72.1885 15.858 72.8232 15.6993 73.3898 15.382C73.9565 15.0533 74.3985 14.6 74.7158 14.022C75.0445 13.444 75.2088 12.7867 75.2088 12.05C75.2088 11.3133 75.0445 10.656 74.7158 10.078C74.3985 9.5 73.9565 9.05233 73.3898 8.735C72.8232 8.40633 72.1885 8.242 71.4858 8.242C70.7832 8.242 70.1485 8.40633 69.5818 8.735C69.0152 9.05233 68.5675 9.5 68.2388 10.078C67.9215 10.656 67.7628 11.3133 67.7628 12.05C67.7628 12.7867 67.9215 13.444 68.2388 14.022C68.5675 14.6 69.0152 15.0533 69.5818 15.382C70.1485 15.6993 70.7832 15.858 71.4858 15.858Z" fill="#243619"/>
<path d="M91.3206 6.1V18H89.0596L83.1266 10.775V18H80.4066V6.1H82.6846L88.6006 13.325V6.1H91.3206Z" fill="#243619"/>
<path d="M99.6271 6.1C100.681 6.1 101.593 6.27567 102.364 6.627C103.146 6.97833 103.747 7.477 104.166 8.123C104.585 8.769 104.795 9.534 104.795 10.418C104.795 11.2907 104.585 12.0557 104.166 12.713C103.747 13.359 103.146 13.8577 102.364 14.209C101.593 14.549 100.681 14.719 99.6271 14.719H97.2301V18H94.4761V6.1H99.6271ZM99.4741 12.475C100.301 12.475 100.93 12.2993 101.361 11.948C101.792 11.5853 102.007 11.0753 102.007 10.418C102.007 9.74933 101.792 9.23933 101.361 8.888C100.93 8.52533 100.301 8.344 99.4741 8.344H97.2301V12.475H99.4741Z" fill="#243619"/>
<path d="M113.03 18.204C111.795 18.204 110.679 17.9377 109.681 17.405C108.695 16.8723 107.919 16.1413 107.352 15.212C106.797 14.2713 106.519 13.2173 106.519 12.05C106.519 10.8827 106.797 9.83433 107.352 8.905C107.919 7.96433 108.695 7.22767 109.681 6.695C110.679 6.16233 111.795 5.896 113.03 5.896C114.266 5.896 115.376 6.16233 116.362 6.695C117.348 7.22767 118.125 7.96433 118.691 8.905C119.258 9.83433 119.541 10.8827 119.541 12.05C119.541 13.2173 119.258 14.2713 118.691 15.212C118.125 16.1413 117.348 16.8723 116.362 17.405C115.376 17.9377 114.266 18.204 113.03 18.204ZM113.03 15.858C113.733 15.858 114.368 15.6993 114.934 15.382C115.501 15.0533 115.943 14.6 116.26 14.022C116.589 13.444 116.753 12.7867 116.753 12.05C116.753 11.3133 116.589 10.656 116.26 10.078C115.943 9.5 115.501 9.05233 114.934 8.735C114.368 8.40633 113.733 8.242 113.03 8.242C112.328 8.242 111.693 8.40633 111.126 8.735C110.56 9.05233 110.112 9.5 109.783 10.078C109.466 10.656 109.307 11.3133 109.307 12.05C109.307 12.7867 109.466 13.444 109.783 14.022C110.112 14.6 110.56 15.0533 111.126 15.382C111.693 15.6993 112.328 15.858 113.03 15.858Z" fill="#243619"/>
<path d="M132.865 6.1V18H130.604L124.671 10.775V18H121.951V6.1H124.229L130.145 13.325V6.1H132.865Z" fill="#243619"/>
<path d="M141.715 18.204C140.503 18.204 139.403 17.9433 138.417 17.422C137.443 16.8893 136.672 16.1583 136.105 15.229C135.55 14.2883 135.272 13.2287 135.272 12.05C135.272 10.8713 135.55 9.81733 136.105 8.888C136.672 7.94733 137.443 7.21633 138.417 6.695C139.403 6.16233 140.508 5.896 141.732 5.896C142.764 5.896 143.693 6.07733 144.52 6.44C145.359 6.80267 146.062 7.324 146.628 8.004L144.86 9.636C144.056 8.70667 143.058 8.242 141.868 8.242C141.132 8.242 140.474 8.40633 139.896 8.735C139.318 9.05233 138.865 9.5 138.536 10.078C138.219 10.656 138.06 11.3133 138.06 12.05C138.06 12.7867 138.219 13.444 138.536 14.022C138.865 14.6 139.318 15.0533 139.896 15.382C140.474 15.6993 141.132 15.858 141.868 15.858C143.058 15.858 144.056 15.3877 144.86 14.447L146.628 16.079C146.062 16.7703 145.359 17.2973 144.52 17.66C143.682 18.0227 142.747 18.204 141.715 18.204Z" fill="#243619"/>
<path d="M158.042 15.79V18H148.828V6.1H157.821V8.31H151.565V10.894H157.09V13.036H151.565V15.79H158.042Z" fill="#243619"/>
<path d="M45.762 30.072C45.132 30.072 44.562 29.934 44.052 29.658C43.548 29.376 43.152 28.992 42.864 28.506C42.576 28.014 42.432 27.462 42.432 26.85C42.432 26.238 42.576 25.689 42.864 25.203C43.152 24.711 43.551 24.327 44.061 24.051C44.571 23.769 45.141 23.628 45.771 23.628C46.263 23.628 46.713 23.712 47.121 23.88C47.529 24.042 47.877 24.285 48.165 24.609L47.58 25.176C47.106 24.678 46.515 24.429 45.807 24.429C45.339 24.429 44.916 24.534 44.538 24.744C44.16 24.954 43.863 25.245 43.647 25.617C43.437 25.983 43.332 26.394 43.332 26.85C43.332 27.306 43.437 27.72 43.647 28.092C43.863 28.458 44.16 28.746 44.538 28.956C44.916 29.166 45.339 29.271 45.807 29.271C46.509 29.271 47.1 29.019 47.58 28.515L48.165 29.082C47.877 29.406 47.526 29.652 47.112 29.82C46.704 29.988 46.254 30.072 45.762 30.072Z" fill="#243619"/>
<path d="M55.1135 28.425H51.7655L51.0725 30H50.1455L52.9985 23.7H53.8895L56.7515 30H55.8065L55.1135 28.425ZM54.7985 27.705L53.4395 24.618L52.0805 27.705H54.7985Z" fill="#243619"/>
<path d="M63.7033 30L62.3443 28.065C62.1763 28.077 62.0443 28.083 61.9483 28.083H60.3913V30H59.4913V23.7H61.9483C62.7643 23.7 63.4063 23.895 63.8743 24.285C64.3423 24.675 64.5763 25.212 64.5763 25.896C64.5763 26.382 64.4563 26.796 64.2163 27.138C63.9763 27.48 63.6343 27.729 63.1903 27.885L64.6843 30H63.7033ZM61.9213 27.318C62.4913 27.318 62.9263 27.195 63.2263 26.949C63.5263 26.703 63.6763 26.352 63.6763 25.896C63.6763 25.44 63.5263 25.092 63.2263 24.852C62.9263 24.606 62.4913 24.483 61.9213 24.483H60.3913V27.318H61.9213Z" fill="#243619"/>
<path d="M72.4024 29.217V30H67.8304V23.7H72.2764V24.483H68.7304V26.418H71.8894V27.183H68.7304V29.217H72.4024Z" fill="#243619"/>
<path d="M83.8906 28.425H80.5426L79.8496 30H78.9226L81.7756 23.7H82.6666L85.5286 30H84.5836L83.8906 28.425ZM83.5756 27.705L82.2166 24.618L80.8576 27.705H83.5756Z" fill="#243619"/>
<path d="M93.6864 23.7V30H92.9484L89.1684 25.302V30H88.2684V23.7H89.0064L92.7864 28.398V23.7H93.6864Z" fill="#243619"/>
<path d="M97.3721 23.7H100.027C100.693 23.7 101.284 23.832 101.8 24.096C102.316 24.36 102.715 24.732 102.997 25.212C103.285 25.686 103.429 26.232 103.429 26.85C103.429 27.468 103.285 28.017 102.997 28.497C102.715 28.971 102.316 29.34 101.8 29.604C101.284 29.868 100.693 30 100.027 30H97.3721V23.7ZM99.9731 29.217C100.483 29.217 100.93 29.118 101.314 28.92C101.704 28.722 102.004 28.446 102.214 28.092C102.424 27.732 102.529 27.318 102.529 26.85C102.529 26.382 102.424 25.971 102.214 25.617C102.004 25.257 101.704 24.978 101.314 24.78C100.93 24.582 100.483 24.483 99.9731 24.483H98.2721V29.217H99.9731Z" fill="#243619"/>
<path d="M115.064 26.733C115.43 26.835 115.718 27.021 115.928 27.291C116.138 27.555 116.243 27.891 116.243 28.299C116.243 28.845 116.036 29.265 115.622 29.559C115.214 29.853 114.617 30 113.831 30H110.825V23.7H113.651C114.371 23.7 114.926 23.844 115.316 24.132C115.712 24.42 115.91 24.819 115.91 25.329C115.91 25.659 115.832 25.944 115.676 26.184C115.526 26.424 115.322 26.607 115.064 26.733ZM111.725 24.429V26.445H113.57C114.032 26.445 114.386 26.361 114.632 26.193C114.884 26.019 115.01 25.767 115.01 25.437C115.01 25.107 114.884 24.858 114.632 24.69C114.386 24.516 114.032 24.429 113.57 24.429H111.725ZM113.795 29.271C114.305 29.271 114.689 29.187 114.947 29.019C115.205 28.851 115.334 28.587 115.334 28.227C115.334 27.525 114.821 27.174 113.795 27.174H111.725V29.271H113.795Z" fill="#243619"/>
<path d="M124.008 29.217V30H119.436V23.7H123.882V24.483H120.336V26.418H123.495V27.183H120.336V29.217H124.008Z" fill="#243619"/>
<path d="M131.28 28.425H127.932L127.239 30H126.312L129.165 23.7H130.056L132.918 30H131.973L131.28 28.425ZM130.965 27.705L129.606 24.618L128.247 27.705H130.965Z" fill="#243619"/>
<path d="M138.135 30.072C137.295 30.072 136.641 29.832 136.173 29.352C135.705 28.872 135.471 28.182 135.471 27.282V23.7H136.371V27.246C136.371 28.596 136.962 29.271 138.144 29.271C138.72 29.271 139.161 29.106 139.467 28.776C139.773 28.44 139.926 27.93 139.926 27.246V23.7H140.799V27.282C140.799 28.188 140.565 28.881 140.097 29.361C139.629 29.835 138.975 30.072 138.135 30.072Z" fill="#243619"/>
<path d="M145.581 24.483H143.421V23.7H148.632V24.483H146.472V30H145.581V24.483Z" fill="#243619"/>
<path d="M153.754 27.822V30H152.863V27.804L150.361 23.7H151.324L153.34 27.021L155.365 23.7H156.256L153.754 27.822Z" fill="#243619"/>
</svg>
